<?xml version="1.0" encoding="utf-8"?>
<!-- Generator: Adobe Illustrator 25.0.0, SVG Export Plug-In . SVG Version: 6.00 Build 0)  -->
<svg version="1.1" id="图层_1" xmlns="http://www.w3.org/2000/svg" xmlns:xlink="http://www.w3.org/1999/xlink" x="0px" y="0px"
	 viewBox="0 0 444.8 275.9" style="enable-background:new 0 0 444.8 275.9;" xml:space="preserve">
<style type="text/css">
	.st0{fill:#004FA2;}
	.st1{fill:#FFF100;}
</style>
<g id="图层_2_1_">
	<g id="图层_1-2">
		<path class="st0" d="M444.8,137.9c0,76.2-99.6,137.9-222.4,137.9S0,214.1,0,137.9S99.6,0,222.4,0S444.8,61.8,444.8,137.9z"/>
		<path class="st1" d="M222.4,8.3C101.5,8.3,6.8,65.2,6.8,137.9s94.7,129.6,215.6,129.6S438,210.6,438,137.9S343.4,8.3,222.4,8.3z
			 M221.6,257.2c-112.7,0-204.1-53.5-204.1-119.5S108.9,18.3,221.6,18.3s204,53.5,204,119.5S334.3,257.2,221.6,257.2L221.6,257.2z"
			/>
		<path class="st1" d="M386.7,175.8h-2.9l-4.4-8.1h-3.2v8.1h-2.9V157h6.2c1.7-0.1,3.3,0.4,4.8,1.3c2.2,1.9,2.5,5.2,0.6,7.5
			c-0.8,0.8-1.8,1.3-2.8,1.5L386.7,175.8z M383.3,162.4c0.1-0.9-0.3-1.8-1-2.4c-1-0.7-2.2-1-3.4-0.9h-2.7v6.4h3.5
			c0.9,0,1.8-0.2,2.6-0.7C383,164.3,383.4,163.4,383.3,162.4z"/>
		<path class="st1" d="M379.6,180.6c-7.7,0-14-6.3-14-14s6.3-14,14-14s14,6.3,14,14c0,7.7-6.2,14-13.9,14
			C379.7,180.6,379.6,180.6,379.6,180.6z M379.6,154.7c-6.6,0-11.9,5.4-11.9,11.9s5.4,11.9,12,11.9c6.6,0,11.9-5.4,11.9-11.9
			C391.5,160,386.2,154.7,379.6,154.7C379.6,154.7,379.6,154.7,379.6,154.7z"/>
		<path class="st1" d="M167.9,86.6c-15.3,0.2-27.6,13-27.4,28.7s12.7,28.2,28,28.1s27.6-13,27.4-28.7S183.2,86.5,167.9,86.6z
			 M168.3,126.3c-5.2,0-9.4-5-9.5-11.2s4.1-11.4,9.3-11.4s9.4,5,9.5,11.2S173.5,126.2,168.3,126.3z"/>
		<path class="st1" d="M330.3,121.9c-4.4,1-14.8,3.7-18,0.3s-1.1-10.8,0.3-14s11.1-24.3,12.2-26.4s1.8-3.7-1.2-4.7
			s-20.9-6.2-23.5-0.1c0,0-5.1,12.3-7.1,55.5c-0.2,4.5,1.6,4.2,2.9,4.8s16.5,4.9,28.5,4.7c4.9-0.1,6.1-1.4,6.7-3.8
			S334.7,120.9,330.3,121.9z"/>
		<path class="st1" d="M382.8,90.3c-0.5-3.2-0.8-3.8-4.2-4.4c-3.2-0.7-6.5-0.5-9.6,0.4c-0.6,0.2-1.1,0.6-1.4,1.2
			c-0.1,0.2-0.1,0.4-0.2,0.6c-0.1,0.5-0.1,0.9,0,1.4c0.2,1.5,4.7,35.6-8.2,35.4c-5.8,0-7.5-9-4.8-22c1.1-4.8,2.5-9.5,4.3-14
			c0.6-0.8,0.6-1.8,0-2.6c-0.9-0.8-3.7-2.2-11.8-2c-3.9,0.1-7.8,1-9.7,2.4l-0.4,0.4c-0.5,0.5-0.8,1.1-1,1.8
			c-0.7,4.4-7.6,51,19.8,52.6c11.1,0.4,20.7-5,25.9-22C383.8,111.2,383.4,94.7,382.8,90.3z"/>
		<path class="st1" d="M141.8,93.7c0-0.2,0.1-0.4,0.1-0.5c0.6-5.3-0.3-10.7-2.4-15.7c-0.2-0.4-0.4-0.8-0.6-1.2c-0.5-1-1-1.9-1.6-2.8
			c-0.7-1-1.4-1.9-2.2-2.7c-4.6-4.8-10.8-6.8-15.1-7.7c-6.6-0.9-18.7-1.8-27.4-0.7c-1.7,0.2-3.4,0.4-5.1,0.9c-1.8,0.5-3.5,1.3-5,2.4
			c-3.1,2.8-3.9,7.1-4.1,9.7c0,0.4,0,0.8,0,1.1s0,0.5,0,0.8c0,0,0,0.1,0,0.1l0,0c0,3.8-0.1,9.7,0.2,15.5c0,1.4,0.1,2.7,0.2,3.7
			c0.8,10.6,2.2,21.2,4.2,31.7c0.9,5.1,2.1,10,3.1,12.4c0.2,0.5,0.5,0.9,0.9,1.2c1.4,1.2,4.4,2.6,10.5,2.2c0,0,1.6-0.2,3.5-0.6
			c3.1-0.7,5.6-1.9,7-3.5c0.8-1.1,1.1-2.4,1-3.7c-0.1-1.6-0.3-9.1,1.2-11.9c1-2,2.8-3.4,4.8-4.1l0,0c3.9-0.6,7.7-1.8,11.3-3.5
			c0.8-0.4,1.6-0.9,2.4-1.4l0,0l0.3-0.2c1.4-0.9,2.6-1.9,3.8-3.1c0.4-0.5,0.9-1,1.3-1.5c0.1-0.2,0.3-0.3,0.4-0.5
			c0.3-0.4,0.5-0.7,0.8-1c1.5-2.2,2.9-4.5,4-6.9c1.2-2.6,2-5.3,2.5-8.2C141.7,93.9,141.7,93.8,141.8,93.7z M112.8,99.7
			c-4.5,0-8.2-4.3-8.3-9.7s3.6-9.8,8.1-9.8s8.2,4.3,8.3,9.7S117.3,99.6,112.8,99.7L112.8,99.7z"/>
		<path class="st1" d="M239.1,123.1c-0.1-0.1-0.2-0.3-0.3-0.4c-0.9-0.8-2.4-0.6-3.3-0.4c-4.8,1.7-13.1,4.4-16.3,1.7
			c-3.6-3-2.2-10.6-1.1-13.9s8.5-25.4,9.4-27.6l0,0c0.3-1,0.3-2.1,0-3.1c-0.3-0.6-0.8-1-1.4-1.3c-0.2-0.1-0.4-0.1-0.6-0.2
			c-2.6-0.5-13-2.3-18.9-0.7c-1,0.3-2,0.8-2.8,1.5c-0.8,0.8-1.4,1.8-1.7,2.9c-0.8,4.2-3.1,19.1-1,54.7c0,0.5,0.1,1,0.2,1.6
			c0,0.2,0.1,0.4,0.2,0.6c0.1,0.2,0.2,0.4,0.4,0.6c0.4,0.5,0.8,0.9,1.4,1.2l0,0c0.1,0.1,0.2,0.1,0.4,0.2c0.1,0,0.1,0.1,0.2,0.1
			c0.8,0.4,1.6,0.7,2.5,0.9c3,0.7,6,1.1,9,1.1c4.7,0.3,9.4,0.3,14.1,0.1c2.5,0,4.9-0.5,7.2-1.2c0.6-0.2,1.1-0.5,1.6-0.8
			c0.8-0.7,1.3-1.8,1.4-2.9c0.5-3.9,0.6-7.8,0.3-11.7C239.6,123.7,239.1,123.2,239.1,123.1z"/>
		<path class="st1" d="M285.9,86.8c-3.1-0.7-6.4-0.5-9.5,0.4c-0.8,0.3-1.4,0.9-1.7,1.7c0,0.5,0,1,0,1.5c0.2,1.5,4.7,35.6-8.3,35.3
			c-5.7,0-7.5-8.9-4.8-21.9c1-4.4,2.3-8.6,3.8-12.8l0,0c0.1-0.3,0.2-0.5,0.3-0.7s0.2-0.6,0.3-1c0-0.1,0-0.1,0.1-0.2
			c0.1-0.4,0.1-0.7,0.1-1.1l0,0l0,0c-0.1-0.5-0.3-0.9-0.7-1.2c-1.5-0.8-4.8-1.7-11.3-1.5c-2.9,0-5.7,0.6-8.4,1.6l-0.2,0.1
			c-1.4,0.9-2.5,2.4-2.8,4.1c-1.2,8.6-5.8,49.8,19.9,51.4c11.1,0.4,20.7-5.1,26-22c2.4-8.3,2-24.8,1.3-29.3
			C289.5,88,289.3,87.5,285.9,86.8z"/>
		<path class="st1" d="M112.7,171.9h8c0.7,0,1.2-0.5,1.2-1.2c0,0,0,0,0,0v-4.8c0-1.3,1.5-2,1.5-2c0.8-0.3,1.6-0.5,2.4-0.5H163
			c0.9,0.1,1.7,0.6,2.1,1.4c0.3,0.7,0.5,1.5,0.5,2.3v3.6c0,0.7,0.6,1.2,1.2,1.2h8c0.7,0,1.2-0.5,1.3-1.2V164c0-2.5-3.4-4-3.4-4
			c-0.8-0.3-1.6-0.5-2.4-0.5h-20c-0.5,0-0.9-0.3-1.1-0.8v-4.6c0-0.7-0.5-1.2-1.2-1.2c0,0,0,0,0,0h-8.2c-0.7,0-1.2,0.5-1.2,1.2v4.7
			c-0.2,0.4-0.6,0.7-1.1,0.7H116c-2.5,0-4,3.4-4,3.4c-0.3,0.7-0.5,1.5-0.5,2.3v5.5C111.5,171.3,112.1,171.9,112.7,171.9z"/>
		<path class="st1" d="M167.3,199.4c-0.3-0.7-0.9-1.1-1.6-1.1h-7.3c-0.5,0-0.9,0.3-0.9,0.8c0,0.1,0,0.3,0.1,0.4l2.9,9
			c0.3,0.7,0.9,1.1,1.6,1.1h7.2c0.5,0,0.9-0.3,0.9-0.8c0-0.1,0-0.3-0.1-0.4L167.3,199.4z"/>
		<path class="st1" d="M175,211.8h-24.8c-0.7,0-1.2-0.5-1.2-1.2v-14.1c0-0.7,0.6-1.2,1.2-1.2h19.9c0.7,0,1.2-0.5,1.2-1.2v-1.4
			c0-0.7-0.6-1.2-1.2-1.2h-19.9c-0.7,0-1.2-0.5-1.2-1.2c0,0,0,0,0,0v-9.9c0-0.7,0.6-1.2,1.2-1.2h21.7c0.7,0,1.3-0.5,1.3-1.2v-1.3
			c0-0.7-0.6-1.2-1.3-1.2c0,0,0,0,0,0h-56.4c-0.7,0-1.2,0.5-1.2,1.2c0,0,0,0,0,0v1.3c0,0.7,0.6,1.2,1.2,1.2h21.7
			c0.7,0,1.2,0.5,1.2,1.2v9.9c0,0.7-0.6,1.2-1.2,1.2c0,0,0,0,0,0h-20c-0.7,0-1.2,0.5-1.3,1.2v1.4c0,0.7,0.6,1.2,1.2,1.2c0,0,0,0,0,0
			h20c0.7,0,1.2,0.5,1.2,1.2v14.1c0,0.7-0.6,1.2-1.2,1.2h-24.8c-0.7,0-1.2,0.5-1.3,1.2c0,0,0,0,0,0v1.3c0,0.7,0.6,1.2,1.3,1.2H175
			c0.7,0,1.2-0.5,1.2-1.2c0,0,0,0,0,0V213C176.2,212.3,175.7,211.8,175,211.8C175,211.8,175,211.8,175,211.8z"/>
		<path class="st1" d="M335.1,201.4h-21.9c-2.8,0-5,2.2-5.1,4.9v5.5c0,2.8,2.3,5,5.1,4.9h21.9c2.7,0,5-2.2,5-4.9v-5.5
			C340.1,203.5,337.8,201.3,335.1,201.4z M329.7,210.4c0,1.4-1.1,2.5-2.5,2.5c0,0,0,0,0,0h-6.5c-1.4,0-2.5-1.1-2.5-2.5v-2.7
			c0-1.4,1.2-2.5,2.5-2.5h6.5c1.4,0,2.5,1.1,2.5,2.5c0,0,0,0,0,0V210.4z"/>
		<path class="st1" d="M290.3,174l0.8,2.5c0.3,0.7,0.9,1.1,1.6,1.2h8.2c0.5,0,0.9-0.3,0.9-0.7c0-0.1,0-0.3-0.1-0.4l-0.8-2.5
			c-0.3-0.7-0.9-1.1-1.6-1.1h-8.2c-0.5,0-0.9,0.3-0.9,0.8C290.2,173.7,290.2,173.9,290.3,174z"/>
		<path class="st1" d="M340.4,153.6h-62.8c-0.7,0-1.2,0.5-1.2,1.2v1.5c0,0.7,0.6,1.2,1.2,1.2h24.9c0.7,0,1.2,0.5,1.2,1.2
			c0,0,0,0,0,0v0.2c0,0.7-0.6,1.2-1.2,1.2c0,0,0,0,0,0h-20.3c-2.6,0-4.1,3.5-4.1,3.5c-0.3,0.7-0.5,1.5-0.5,2.3v11.3
			c0,0.7,0.6,1.2,1.2,1.2c0,0,0,0,0,0h8c0.7,0,1.2-0.5,1.2-1.2v-10.6c0.1-0.9,0.7-1.7,1.5-2.1c0.7-0.3,1.5-0.5,2.4-0.5h10.6
			c0.7,0,1.2,0.6,1.2,1.2v12c0,0.7,0.6,1.2,1.2,1.2c0,0,0,0,0,0h8c0.7,0,1.2-0.5,1.2-1.2c0,0,0,0,0,0v-12c0-0.7,0.6-1.2,1.2-1.2
			h11.9c0.9,0.1,1.7,0.7,2.1,1.5c0.3,0.7,0.5,1.5,0.5,2.4v9.4c0,0.7,0.6,1.2,1.2,1.2c0,0,0,0,0,0h8c0.7,0,1.2-0.5,1.3-1.2
			c0,0,0,0,0,0v-12.5c0-2.5-3.5-4.1-3.5-4.1c-0.7-0.3-1.5-0.5-2.4-0.5h-19.2c-0.7,0-1.2-0.5-1.2-1.2v-0.2c0-0.7,0.6-1.2,1.2-1.2
			c0,0,0,0,0,0h24.9c0.7,0,1.2-0.5,1.3-1.2v-1.5C341.7,154.2,341.1,153.6,340.4,153.6z"/>
		<path class="st1" d="M318.8,171.1h8.1c0.5,0.1,0.9-0.3,0.9-0.7c0-0.1,0-0.3-0.1-0.4l-0.8-2.5c-0.3-0.7-0.9-1.1-1.6-1.2h-8.1
			c-0.5,0-0.9,0.3-0.9,0.8c0,0.1,0,0.3,0.1,0.4l0.8,2.5C317.4,170.6,318.1,171,318.8,171.1z"/>
		<path class="st1" d="M316.3,174l0.8,2.5c0.3,0.7,0.9,1.1,1.6,1.2h8.1c0.5,0,0.9-0.3,0.9-0.8c0-0.1,0-0.3-0.1-0.4l-0.8-2.5
			c-0.3-0.7-0.9-1.1-1.6-1.1h-8.1c-0.5,0-0.9,0.3-0.9,0.8C316.3,173.8,316.3,173.9,316.3,174z"/>
		<path class="st1" d="M292.7,171.1h8.2c0.5,0.1,0.9-0.3,0.9-0.7c0-0.1,0-0.3-0.1-0.4l-0.8-2.5c-0.3-0.7-0.9-1.1-1.6-1.2h-8.2
			c-0.5,0-0.9,0.3-0.9,0.8c0,0.1,0,0.3,0.1,0.4l0.8,2.5C291.4,170.6,292,171,292.7,171.1z"/>
		<path class="st1" d="M340.6,196.1c-2.9-0.3-5.8-0.9-8.6-1.7c2.8-1.7,5.4-3.6,7.8-5.8c1-0.8,1.4-2.2,0.8-3.4
			c-0.3-0.8-1-1.4-1.8-1.7c-0.8-0.2-1.6-0.4-2.4-0.4h-15.3c-0.5,0.1-0.9-0.3-0.9-0.8c0-0.1,0-0.3,0.1-0.4l0.3-1
			c0.2-0.4,0-0.9-0.5-1.1c-0.1-0.1-0.3-0.1-0.4-0.1h-7h-0.3c-0.5,0.1-0.8,0.4-1.1,0.8c-1.2,3.5-2.5,6.8-4,10.2
			c-0.2,0.4-0.1,0.8,0.3,1c0.1,0.1,0.3,0.1,0.5,0.1h4.2c1.3,1,2.7,1.9,4.1,2.8c-2.9,0.8-8.4,1.4-8.4,1.4c-0.7,0.1-1.2,0.7-1.2,1.4
			v3.6c0.1,0.3,0.4,0.5,0.7,0.6c5.7-0.4,11.2-1.5,16.6-3.3c5,1.8,16.2,3.2,16.2,3.2c0.6,0.1,1.1-0.3,1.2-0.9c0-0.1,0-0.1,0-0.2v-2.8
			l0,0c0-0.1,0-0.2,0-0.3v-0.2c0-0.2-0.1-0.4-0.2-0.5C341.1,196.3,340.9,196.2,340.6,196.1z M330.6,187.5c-1.5,1.3-3.2,2.5-5,3.5
			c-0.2,0.1-0.5,0.2-0.7,0.2h-0.2c-0.4,0-0.9-0.1-1.2-0.3c-1.9-0.9-3.6-2-5.2-3.4c-0.1-0.2-0.2-0.5,0.4-0.6h11.6
			C330.5,187,330.8,187.2,330.6,187.5L330.6,187.5z"/>
		<path class="st1" d="M304.7,210.5l-4.9,0.4c-0.6,0.1-1.2-0.4-1.2-1c0,0,0-0.1,0-0.1v-2.9c0-0.7,0.6-1.2,1.2-1.2h3.4
			c0.7,0,1.2-0.5,1.2-1.2v-1.3c0-0.7-0.6-1.2-1.2-1.2h-3.4c-0.7,0-1.2-0.5-1.2-1.2c0,0,0,0,0,0v-2.7c0-0.6,0.4-1,0.9-1.2h1.4
			c2.7,0,4.9-2.1,5-4.8c0,0,0,0,0,0V185c0-2.7-2.3-4.9-5-4.9c0,0,0,0,0,0h-19c-2.7,0-5,2.1-5,4.8c0,0,0,0,0,0v7.4
			c0,0.3,0.1,0.6,0.2,0.9c0.6,2.1,2.6,3.6,4.8,3.6h6c0.5,0.1,0.9,0.6,0.9,1.2v12.5c0.1,0.6-0.3,1.1-0.9,1.2c-0.5,0-0.9-0.4-0.9-1.1
			v-9.8c0-0.7-0.6-1.2-1.2-1.2h-6.4c-0.7,0-1.2,0.5-1.2,1.2v10.5c0,0.7-0.3,1.2-0.7,1.3s-0.7,0.6-0.7,1.3v1.2c0,0.6,0.5,1.1,1.1,1.1
			c0,0,0.1,0,0.1,0l26.7-2.1c0.7-0.1,1.2-0.6,1.2-1.3v-1.2c0-0.6-0.5-1.1-1.1-1.2C304.8,210.5,304.7,210.5,304.7,210.5z
			 M295.9,191.8c0,0.7-0.6,1.2-1.2,1.2h-6.6c-0.1,0-0.2,0-0.4-0.1c-0.5-0.2-0.9-0.6-0.9-1.2v-6.5c0-0.7,0.6-1.2,1.2-1.2c0,0,0,0,0,0
			h6.6c0.7,0,1.2,0.5,1.2,1.2c0,0,0,0,0,0L295.9,191.8z"/>
		<path class="st1" d="M252.4,201.4h-21.9c-2.7,0-5,2.2-5,4.9v5.5c0,2.7,2.3,4.9,5,4.9h21.9c2.7,0,5-2.2,5-4.9v-5.5
			C257.4,203.5,255.2,201.4,252.4,201.4z M247,210.4c0,1.4-1.1,2.5-2.5,2.5c0,0,0,0,0,0H238c-1.4,0-2.5-1.1-2.5-2.4c0,0,0,0,0,0
			v-2.7c0-1.4,1.1-2.5,2.5-2.5c0,0,0,0,0,0h6.5c1.4,0,2.5,1.1,2.5,2.5L247,210.4z"/>
		<path class="st1" d="M207.6,174l0.8,2.5c0.3,0.7,0.9,1.1,1.6,1.2h8.1c0.5,0.1,0.9-0.3,0.9-0.7c0-0.2,0-0.3-0.1-0.4l-0.8-2.5
			c-0.3-0.7-0.9-1.1-1.6-1.1h-8.2c-0.5-0.1-0.9,0.3-0.9,0.7C207.5,173.7,207.6,173.9,207.6,174z"/>
		<path class="st1" d="M257.8,153.6H195c-0.7,0-1.2,0.5-1.2,1.2v1.5c0,0.7,0.6,1.2,1.2,1.2h24.9c0.7,0,1.2,0.5,1.2,1.2c0,0,0,0,0,0
			v0.2c0,0.7-0.6,1.2-1.2,1.2c0,0,0,0,0,0h-20.2c-2.6,0-4.1,3.5-4.1,3.5c-0.3,0.7-0.5,1.5-0.5,2.3v11.3c0,0.7,0.6,1.2,1.2,1.2
			c0,0,0,0,0,0h7.9c0.7,0,1.2-0.5,1.3-1.2c0,0,0,0,0,0v-10.6c0.1-0.9,0.7-1.7,1.5-2.1c0.7-0.3,1.5-0.5,2.4-0.5h10.6
			c0.7,0,1.2,0.5,1.2,1.2c0,0,0,0,0,0v12c0,0.7,0.6,1.2,1.2,1.2c0,0,0,0,0,0h8c0.7,0,1.2-0.5,1.2-1.2c0,0,0,0,0,0v-12
			c0-0.7,0.6-1.2,1.2-1.2h11.9c0.9,0.1,1.7,0.7,2.1,1.5c0.3,0.7,0.5,1.5,0.5,2.4v9.4c0,0.7,0.6,1.2,1.2,1.2c0,0,0,0,0,0h8
			c0.7,0,1.2-0.5,1.2-1.2c0,0,0,0,0,0v-12.5c0-2.5-3.5-4.1-3.5-4.1c-0.7-0.3-1.5-0.5-2.4-0.5h-19.1c-0.7,0-1.2-0.5-1.2-1.2v-0.2
			c0-0.7,0.6-1.2,1.2-1.2h25c0.7,0,1.2-0.5,1.2-1.2v-1.5C259.1,154.2,258.5,153.6,257.8,153.6C257.8,153.6,257.8,153.6,257.8,153.6z
			"/>
		<path class="st1" d="M236.1,171.1h8.1c0.5,0,0.9-0.3,0.9-0.7c0-0.1,0-0.3-0.1-0.4l-0.8-2.5c-0.2-0.7-0.9-1.1-1.6-1.2h-8.1
			c-0.5,0-0.9,0.3-0.9,0.8c0,0.1,0,0.3,0.1,0.4l0.8,2.5C234.8,170.6,235.4,171,236.1,171.1z"/>
		<path class="st1" d="M233.7,174l0.8,2.5c0.3,0.7,0.9,1.1,1.6,1.2h8.1c0.5,0,0.9-0.3,0.9-0.8c0-0.1,0-0.3-0.1-0.4l-0.8-2.5
			c-0.2-0.7-0.9-1.1-1.6-1.1h-8.1c-0.5-0.1-0.9,0.3-0.9,0.7C233.6,173.7,233.6,173.9,233.7,174z"/>
		<path class="st1" d="M210.1,171.1h8.1c0.5,0.1,0.9-0.3,0.9-0.7c0-0.1,0-0.3-0.1-0.4l-0.8-2.5c-0.3-0.7-0.9-1.1-1.6-1.2h-8.2
			c-0.5,0-0.9,0.3-0.9,0.8c0,0.1,0,0.3,0.1,0.4l0.8,2.5C208.7,170.6,209.4,171,210.1,171.1z"/>
		<path class="st1" d="M258,196.1c-2.9-0.3-5.8-0.9-8.7-1.7c2.8-1.7,5.4-3.6,7.8-5.8c1-0.8,1.4-2.2,0.9-3.4c-0.4-0.8-1-1.4-1.9-1.7
			c-0.8-0.2-1.6-0.4-2.4-0.4h-15.2c-0.5,0.1-0.9-0.3-1-0.8c0-0.1,0-0.3,0-0.4l0.3-1c0.2-0.4-0.1-0.9-0.5-1.1c-0.1,0-0.3-0.1-0.4,0
			h-7h-0.3c-0.5,0.1-0.8,0.4-1.1,0.8c-1.3,4.1-4,10.2-4,10.2c-0.2,0.4-0.1,0.8,0.3,1c0.1,0.1,0.3,0.1,0.5,0.1h4.2
			c1.4,1,2.8,1.9,4.1,2.8c-2.9,0.8-8.4,1.4-8.4,1.4c-0.7,0.1-1.2,0.7-1.2,1.4v3.6c0.1,0.3,0.4,0.5,0.7,0.6
			c5.7-0.4,11.3-1.5,16.6-3.3c5,1.8,16.1,3.2,16.1,3.2c0.6,0.1,1.1-0.3,1.2-0.9c0-0.1,0-0.1,0-0.2v-2.8l0,0v-0.6
			c0-0.2-0.1-0.4-0.2-0.5C258.5,196.3,258.2,196.2,258,196.1z M248,187.5c-1.5,1.3-3.2,2.5-5,3.5c-0.2,0.1-0.5,0.2-0.7,0.2h-0.1
			c-0.4,0-0.9-0.1-1.3-0.3c-1.8-0.9-3.6-2.1-5.1-3.4c-0.1-0.2-0.1-0.5,0.4-0.6h11.6C247.9,187,248.1,187.2,248,187.5z"/>
		<path class="st1" d="M222,210.5l-4.9,0.4c-0.6,0.1-1.2-0.4-1.2-1c0,0,0-0.1,0-0.1v-2.9c0-0.7,0.6-1.2,1.2-1.2h3.4
			c0.7,0,1.2-0.5,1.3-1.2v-1.3c0-0.7-0.6-1.2-1.3-1.2h-3.4c-0.7,0-1.2-0.5-1.2-1.2v-2.7c0-0.6,0.4-1,0.9-1.2h1.4
			c2.7,0.1,4.9-2.1,5-4.8c0,0,0,0,0,0V185c0-2.7-2.3-4.9-5-4.9c0,0,0,0,0,0h-19c-2.7,0-5,2.1-5,4.8c0,0,0,0,0,0v7.1c0,0,0,0,0,0.1
			v0.2c0,0.3,0.1,0.6,0.2,0.9c0.6,2.1,2.6,3.6,4.8,3.6h6c0.6,0.1,1,0.6,1,1.2v12.5c0.1,0.6-0.3,1.1-0.9,1.2c-0.5,0-0.9-0.4-0.9-1.1
			v-9.8c0-0.7-0.6-1.2-1.2-1.2h-6.4c-0.7,0-1.2,0.5-1.2,1.2v10.5c0,0.7-0.3,1.2-0.7,1.3s-0.7,0.6-0.7,1.3v1.2c0,0.6,0.5,1.1,1.1,1.1
			c0,0,0.1,0,0.1,0l26.6-2.2c0.7-0.1,1.2-0.6,1.2-1.3v-1.2c0-0.6-0.5-1.1-1.1-1.1C222.1,210.4,222.1,210.5,222,210.5z M213.2,191.8
			c0,0.7-0.5,1.2-1.2,1.2c0,0,0,0,0,0h-6.6c-0.1,0-0.2,0-0.4-0.1c-0.5-0.2-0.9-0.6-0.9-1.2v-6.5c0-0.7,0.5-1.2,1.2-1.2c0,0,0,0,0,0
			h6.6c0.7,0,1.2,0.5,1.2,1.2c0,0,0,0,0,0V191.8z"/>
	</g>
</g>
</svg>
